<svg xmlns="http://www.w3.org/2000/svg" version="1.1" xmlns:xlink="http://www.w3.org/1999/xlink" xmlns:svgjs="http://svgjs.dev/svgjs" viewBox="0 0 7.478475715597769 1.846802477362322"><g transform="matrix(1,0,0,1,0.29440123868116075,0.553401238681161)"><rect width="7.478475715597769" height="7.478475715597769" x="-0.29440123868116075" y="-3.3692378577988844" fill="#OB2F50"></rect><g><path d=" M 0.147 0.74 Q 0.11900000000000001 0.74 0.097 0.7225 Q 0.075 0.705 0.075 0.679 L 0.075 0.10099999999999998 Q 0.075 0.07499999999999996 0.0925 0.057499999999999996 Q 0.11 0.039999999999999925 0.136 0.039999999999999925 L 0.424 0.039999999999999925 Q 0.47600000000000003 0.039999999999999925 0.5215 0.0675 Q 0.5670000000000001 0.09499999999999997 0.595 0.14349999999999996 Q 0.623 0.19199999999999995 0.623 0.255 Q 0.623 0.293 0.6075 0.32899999999999996 Q 0.592 0.365 0.5655 0.39399999999999996 Q 0.539 0.423 0.506 0.439 L 0.507 0.416 Q 0.535 0.431 0.5535 0.4515 Q 0.5720000000000001 0.472 0.5825 0.4955 Q 0.593 0.519 0.595 0.546 Q 0.599 0.571 0.6005 0.59 Q 0.602 0.609 0.6065 0.622 Q 0.611 0.635 0.624 0.642 Q 0.646 0.655 0.6515 0.6795 Q 0.657 0.704 0.64 0.723 Q 0.629 0.736 0.612 0.7395 Q 0.595 0.743 0.578 0.7395 Q 0.561 0.736 0.55 0.73 Q 0.533 0.72 0.516 0.7005 Q 0.499 0.6809999999999999 0.4885 0.648 Q 0.47800000000000004 0.615 0.47800000000000004 0.563 Q 0.47800000000000004 0.546 0.47200000000000003 0.5315 Q 0.466 0.517 0.455 0.5065 Q 0.444 0.496 0.427 0.4905 Q 0.41000000000000003 0.485 0.387 0.485 L 0.185 0.485 L 0.2 0.46199999999999997 L 0.2 0.679 Q 0.2 0.705 0.186 0.7225 Q 0.17200000000000001 0.74 0.147 0.74 M 0.186 0.382 L 0.419 0.382 Q 0.437 0.382 0.454 0.3655 Q 0.47100000000000003 0.349 0.482 0.3205 Q 0.493 0.292 0.493 0.258 Q 0.493 0.21399999999999997 0.46950000000000003 0.1845 Q 0.446 0.15500000000000003 0.419 0.15500000000000003 L 0.188 0.15500000000000003 L 0.2 0.123 L 0.2 0.40599999999999997 L 0.186 0.382 M 0.9940068359375 0.75 Q 0.9090068359375 0.75 0.8465068359375 0.7145 Q 0.7840068359375 0.679 0.7505068359375 0.618 Q 0.7170068359375 0.5569999999999999 0.7170068359375 0.48 Q 0.7170068359375 0.38999999999999996 0.7535068359375 0.32649999999999996 Q 0.7900068359375 0.26299999999999996 0.8490068359375 0.22899999999999998 Q 0.9080068359375 0.19499999999999995 0.9740068359375 0.19499999999999995 Q 1.0250068359375 0.19499999999999995 1.0705068359375 0.21599999999999997 Q 1.1160068359375 0.237 1.1510068359375 0.27349999999999997 Q 1.1860068359375 0.31 1.2065068359375 0.358 Q 1.2270068359375 0.40599999999999997 1.2270068359375 0.45999999999999996 Q 1.2260068359375 0.484 1.2080068359375 0.499 Q 1.1900068359375 0.514 1.1660068359375 0.514 L 0.7840068359375 0.514 L 0.7540068359375001 0.414 L 1.1210068359375 0.414 L 1.0990068359375 0.434 L 1.0990068359375 0.407 Q 1.0970068359375 0.378 1.0785068359375 0.355 Q 1.0600068359375001 0.33199999999999996 1.0325068359375 0.3185 Q 1.0050068359375 0.305 0.9740068359375 0.305 Q 0.9440068359375 0.305 0.9180068359375 0.313 Q 0.8920068359375 0.321 0.8730068359375001 0.33999999999999997 Q 0.8540068359375 0.359 0.8430068359375 0.39099999999999996 Q 0.8320068359375 0.423 0.8320068359375 0.472 Q 0.8320068359375 0.526 0.8545068359375 0.5635 Q 0.8770068359375001 0.601 0.9125068359375 0.6204999999999999 Q 0.9480068359375 0.64 0.9880068359375 0.64 Q 1.0250068359375 0.64 1.0470068359375 0.634 Q 1.0690068359375 0.628 1.0825068359375 0.6194999999999999 Q 1.0960068359375001 0.611 1.1070068359375 0.605 Q 1.1250068359375 0.596 1.1410068359375 0.596 Q 1.1630068359374999 0.596 1.1775068359375 0.611 Q 1.1920068359375 0.626 1.1920068359375 0.646 Q 1.1920068359375 0.673 1.1640068359375 0.695 Q 1.1380068359375 0.717 1.0910068359375 0.7335 Q 1.0440068359375 0.75 0.9940068359375 0.75 M 1.76405224609375 0.19499999999999995 Q 1.79005224609375 0.19499999999999995 1.80705224609375 0.21199999999999997 Q 1.82405224609375 0.22899999999999998 1.82405224609375 0.256 L 1.82405224609375 0.679 Q 1.82405224609375 0.705 1.80705224609375 0.7225 Q 1.79005224609375 0.74 1.76405224609375 0.74 Q 1.73805224609375 0.74 1.72105224609375 0.7225 Q 1.70405224609375 0.705 1.70405224609375 0.679 L 1.70405224609375 0.63 L 1.72605224609375 0.639 Q 1.72605224609375 0.652 1.71205224609375 0.6705 Q 1.69805224609375 0.689 1.67405224609375 0.707 Q 1.65005224609375 0.725 1.6175522460937501 0.7375 Q 1.58505224609375 0.75 1.5470522460937501 0.75 Q 1.47805224609375 0.75 1.42205224609375 0.7145 Q 1.36605224609375 0.679 1.33355224609375 0.6165 Q 1.30105224609375 0.554 1.30105224609375 0.473 Q 1.30105224609375 0.39099999999999996 1.33355224609375 0.32849999999999996 Q 1.36605224609375 0.26599999999999996 1.42105224609375 0.23049999999999993 Q 1.47605224609375 0.19499999999999995 1.5430522460937501 0.19499999999999995 Q 1.58605224609375 0.19499999999999995 1.6220522460937499 0.20799999999999996 Q 1.65805224609375 0.22099999999999997 1.6845522460937499 0.241 Q 1.71105224609375 0.26099999999999995 1.72555224609375 0.2815 Q 1.74005224609375 0.302 1.74005224609375 0.316 L 1.70405224609375 0.32899999999999996 L 1.70405224609375 0.256 Q 1.70405224609375 0.22999999999999998 1.72105224609375 0.21250000000000002 Q 1.73805224609375 0.19499999999999995 1.76405224609375 0.19499999999999995 M 1.56205224609375 0.64 Q 1.60605224609375 0.64 1.63905224609375 0.618 Q 1.6720522460937501 0.596 1.69055224609375 0.558 Q 1.70905224609375 0.52 1.70905224609375 0.473 Q 1.70905224609375 0.425 1.69055224609375 0.387 Q 1.6720522460937501 0.349 1.63905224609375 0.32699999999999996 Q 1.60605224609375 0.305 1.56205224609375 0.305 Q 1.5190522460937501 0.305 1.48605224609375 0.32699999999999996 Q 1.45305224609375 0.349 1.43455224609375 0.387 Q 1.41605224609375 0.425 1.41605224609375 0.473 Q 1.41605224609375 0.52 1.43455224609375 0.558 Q 1.45305224609375 0.596 1.48605224609375 0.618 Q 1.5190522460937501 0.64 1.56205224609375 0.64 M 2.0840380859375 0.679 Q 2.0840380859375 0.705 2.0665380859375 0.7225 Q 2.0490380859375 0.74 2.0230380859375 0.74 Q 1.9980380859375 0.74 1.9810380859375 0.7225 Q 1.9640380859375 0.705 1.9640380859375 0.679 L 1.9640380859375 0.06099999999999994 Q 1.9640380859375 0.03500000000000003 1.9815380859375 0.01749999999999996 Q 1.9990380859375 0 2.0250380859375 0 Q 2.0510380859375 0 2.0675380859375 0.01749999999999996 Q 2.0840380859375 0.03500000000000003 2.0840380859375 0.06099999999999994 L 2.0840380859375 0.679" fill="#OB2F50" fill-rule="nonzero"></path></g><g><path d=" M 3.955665914016698 0.039999999999999925 L 4.290665914016698 0.039999999999999925 Q 4.316665914016698 0.039999999999999925 4.3341659140166975 0.056499999999999995 Q 4.351665914016698 0.07299999999999995 4.351665914016698 0.09899999999999998 Q 4.351665914016698 0.124 4.3341659140166975 0.13949999999999996 Q 4.316665914016698 0.15500000000000003 4.290665914016698 0.15500000000000003 L 4.010665914016698 0.15500000000000003 L 4.019665914016698 0.138 L 4.019665914016698 0.33299999999999996 L 4.011665914016698 0.32499999999999996 L 4.245665914016698 0.32499999999999996 Q 4.271665914016698 0.32499999999999996 4.289165914016698 0.34149999999999997 Q 4.306665914016698 0.358 4.306665914016698 0.384 Q 4.306665914016698 0.409 4.289165914016698 0.4245 Q 4.271665914016698 0.44 4.245665914016698 0.44 L 4.014665914016698 0.44 L 4.019665914016698 0.432 L 4.019665914016698 0.634 L 4.011665914016698 0.625 L 4.290665914016698 0.625 Q 4.316665914016698 0.625 4.3341659140166975 0.6425 Q 4.351665914016698 0.66 4.351665914016698 0.6829999999999999 Q 4.351665914016698 0.708 4.3341659140166975 0.724 Q 4.316665914016698 0.74 4.290665914016698 0.74 L 3.955665914016698 0.74 Q 3.929665914016698 0.74 3.9121659140166978 0.7225 Q 3.894665914016698 0.705 3.894665914016698 0.679 L 3.894665914016698 0.10099999999999998 Q 3.894665914016698 0.07499999999999996 3.9121659140166978 0.057499999999999996 Q 3.929665914016698 0.039999999999999925 3.955665914016698 0.039999999999999925 M 4.425687398391697 0.657 Q 4.4156873983916975 0.643 4.416687398391698 0.621 Q 4.417687398391697 0.599 4.442687398391698 0.583 Q 4.458687398391698 0.573 4.4766873983916975 0.5745 Q 4.494687398391697 0.576 4.511687398391698 0.593 Q 4.5406873983916975 0.622 4.572687398391698 0.638 Q 4.604687398391698 0.654 4.652687398391698 0.654 Q 4.667687398391697 0.653 4.685687398391697 0.6495 Q 4.703687398391698 0.646 4.717187398391697 0.6335 Q 4.730687398391698 0.621 4.730687398391698 0.595 Q 4.730687398391698 0.573 4.715687398391697 0.56 Q 4.700687398391698 0.5469999999999999 4.676187398391698 0.538 Q 4.651687398391697 0.529 4.621687398391698 0.521 Q 4.590687398391697 0.512 4.558187398391698 0.501 Q 4.525687398391698 0.49 4.498687398391698 0.4725 Q 4.471687398391698 0.45499999999999996 4.454687398391697 0.426 Q 4.437687398391698 0.39699999999999996 4.437687398391698 0.353 Q 4.437687398391698 0.303 4.465687398391697 0.26799999999999996 Q 4.493687398391698 0.23299999999999998 4.538187398391697 0.21399999999999997 Q 4.582687398391697 0.19499999999999995 4.631687398391698 0.19499999999999995 Q 4.662687398391697 0.19499999999999995 4.696687398391697 0.2025 Q 4.730687398391698 0.20999999999999996 4.761687398391698 0.22650000000000003 Q 4.792687398391697 0.243 4.813687398391697 0.26999999999999996 Q 4.824687398391697 0.285 4.826687398391697 0.306 Q 4.828687398391698 0.32699999999999996 4.807687398391698 0.344 Q 4.792687398391697 0.356 4.772687398391698 0.3545 Q 4.752687398391697 0.353 4.739687398391697 0.34099999999999997 Q 4.722687398391698 0.319 4.694187398391698 0.306 Q 4.6656873983916975 0.293 4.628687398391698 0.293 Q 4.613687398391698 0.293 4.596187398391698 0.2965 Q 4.578687398391698 0.3 4.565687398391698 0.3115 Q 4.552687398391697 0.323 4.552687398391697 0.348 Q 4.552687398391697 0.371 4.567687398391698 0.3845 Q 4.582687398391697 0.39799999999999996 4.608187398391697 0.4065 Q 4.6336873983916975 0.415 4.662687398391697 0.423 Q 4.692687398391698 0.431 4.723687398391697 0.442 Q 4.754687398391697 0.45299999999999996 4.780687398391698 0.471 Q 4.806687398391698 0.489 4.822687398391698 0.5175 Q 4.838687398391698 0.546 4.838687398391698 0.59 Q 4.838687398391698 0.641 4.808687398391697 0.677 Q 4.778687398391698 0.713 4.733687398391697 0.7315 Q 4.688687398391697 0.75 4.6416873983916975 0.75 Q 4.582687398391697 0.75 4.523687398391697 0.7295 Q 4.464687398391698 0.709 4.425687398391697 0.657 M 4.944682027297947 0.21499999999999997 L 5.181682027297947 0.21499999999999997 Q 5.205682027297947 0.21499999999999997 5.221682027297947 0.23099999999999998 Q 5.237682027297947 0.247 5.237682027297947 0.27099999999999996 Q 5.237682027297947 0.294 5.221682027297947 0.3095 Q 5.205682027297947 0.32499999999999996 5.181682027297947 0.32499999999999996 L 4.944682027297947 0.32499999999999996 Q 4.920682027297947 0.32499999999999996 4.904682027297947 0.309 Q 4.888682027297947 0.293 4.888682027297947 0.26899999999999996 Q 4.888682027297947 0.246 4.904682027297947 0.23049999999999993 Q 4.920682027297947 0.21499999999999997 4.944682027297947 0.21499999999999997 M 5.0516820272979475 0.08999999999999997 Q 5.077682027297947 0.08999999999999997 5.094182027297948 0.10749999999999993 Q 5.110682027297948 0.125 5.110682027297948 0.15100000000000002 L 5.110682027297948 0.596 Q 5.110682027297948 0.61 5.116182027297947 0.619 Q 5.121682027297948 0.628 5.131182027297948 0.632 Q 5.140682027297948 0.636 5.151682027297948 0.636 Q 5.163682027297948 0.636 5.173682027297947 0.6315 Q 5.183682027297947 0.627 5.196682027297948 0.627 Q 5.210682027297947 0.627 5.222182027297947 0.64 Q 5.233682027297948 0.653 5.233682027297948 0.6759999999999999 Q 5.233682027297948 0.704 5.203182027297948 0.722 Q 5.172682027297948 0.74 5.137682027297948 0.74 Q 5.116682027297948 0.74 5.091182027297948 0.7365 Q 5.065682027297948 0.733 5.043182027297948 0.7195 Q 5.020682027297948 0.706 5.005682027297947 0.6779999999999999 Q 4.9906820272979475 0.65 4.9906820272979475 0.601 L 4.9906820272979475 0.15100000000000002 Q 4.9906820272979475 0.125 5.008182027297948 0.10749999999999993 Q 5.025682027297948 0.08999999999999997 5.0516820272979475 0.08999999999999997 M 5.780678609329198 0.19499999999999995 Q 5.8066786093291975 0.19499999999999995 5.823678609329198 0.21199999999999997 Q 5.840678609329197 0.22899999999999998 5.840678609329197 0.256 L 5.840678609329197 0.679 Q 5.840678609329197 0.705 5.823678609329198 0.7225 Q 5.8066786093291975 0.74 5.780678609329198 0.74 Q 5.754678609329198 0.74 5.737678609329198 0.7225 Q 5.720678609329197 0.705 5.720678609329197 0.679 L 5.720678609329197 0.63 L 5.7426786093291975 0.639 Q 5.7426786093291975 0.652 5.728678609329197 0.6705 Q 5.714678609329198 0.689 5.690678609329198 0.707 Q 5.666678609329198 0.725 5.634178609329197 0.7375 Q 5.6016786093291975 0.75 5.563678609329197 0.75 Q 5.494678609329197 0.75 5.438678609329197 0.7145 Q 5.382678609329197 0.679 5.350178609329197 0.6165 Q 5.317678609329198 0.554 5.317678609329198 0.473 Q 5.317678609329198 0.39099999999999996 5.350178609329197 0.32849999999999996 Q 5.382678609329197 0.26599999999999996 5.437678609329198 0.23049999999999993 Q 5.4926786093291975 0.19499999999999995 5.559678609329198 0.19499999999999995 Q 5.602678609329198 0.19499999999999995 5.638678609329197 0.20799999999999996 Q 5.674678609329198 0.22099999999999997 5.701178609329197 0.241 Q 5.727678609329198 0.26099999999999995 5.742178609329198 0.2815 Q 5.756678609329198 0.302 5.756678609329198 0.316 L 5.720678609329197 0.32899999999999996 L 5.720678609329197 0.256 Q 5.720678609329197 0.22999999999999998 5.737678609329198 0.21250000000000002 Q 5.754678609329198 0.19499999999999995 5.780678609329198 0.19499999999999995 M 5.578678609329198 0.64 Q 5.622678609329197 0.64 5.655678609329198 0.618 Q 5.688678609329197 0.596 5.707178609329198 0.558 Q 5.725678609329197 0.52 5.725678609329197 0.473 Q 5.725678609329197 0.425 5.707178609329198 0.387 Q 5.688678609329197 0.349 5.655678609329198 0.32699999999999996 Q 5.622678609329197 0.305 5.578678609329198 0.305 Q 5.535678609329198 0.305 5.502678609329197 0.32699999999999996 Q 5.469678609329198 0.349 5.451178609329197 0.387 Q 5.432678609329198 0.425 5.432678609329198 0.473 Q 5.432678609329198 0.52 5.451178609329197 0.558 Q 5.469678609329198 0.596 5.502678609329197 0.618 Q 5.535678609329198 0.64 5.578678609329198 0.64 M 5.976664449172947 0.21499999999999997 L 6.213664449172947 0.21499999999999997 Q 6.237664449172947 0.21499999999999997 6.253664449172947 0.23099999999999998 Q 6.269664449172947 0.247 6.269664449172947 0.27099999999999996 Q 6.269664449172947 0.294 6.253664449172947 0.3095 Q 6.237664449172947 0.32499999999999996 6.213664449172947 0.32499999999999996 L 5.976664449172947 0.32499999999999996 Q 5.952664449172947 0.32499999999999996 5.936664449172947 0.309 Q 5.920664449172947 0.293 5.920664449172947 0.26899999999999996 Q 5.920664449172947 0.246 5.936664449172947 0.23049999999999993 Q 5.952664449172947 0.21499999999999997 5.976664449172947 0.21499999999999997 M 6.0836644491729475 0.08999999999999997 Q 6.109664449172947 0.08999999999999997 6.126164449172948 0.10749999999999993 Q 6.142664449172948 0.125 6.142664449172948 0.15100000000000002 L 6.142664449172948 0.596 Q 6.142664449172948 0.61 6.148164449172947 0.619 Q 6.153664449172948 0.628 6.163164449172948 0.632 Q 6.172664449172948 0.636 6.183664449172948 0.636 Q 6.195664449172948 0.636 6.205664449172947 0.6315 Q 6.215664449172947 0.627 6.228664449172948 0.627 Q 6.242664449172947 0.627 6.254164449172947 0.64 Q 6.265664449172948 0.653 6.265664449172948 0.6759999999999999 Q 6.265664449172948 0.704 6.235164449172948 0.722 Q 6.204664449172948 0.74 6.169664449172948 0.74 Q 6.148664449172948 0.74 6.123164449172948 0.7365 Q 6.097664449172948 0.733 6.075164449172948 0.7195 Q 6.052664449172948 0.706 6.037664449172947 0.6779999999999999 Q 6.0226644491729475 0.65 6.0226644491729475 0.601 L 6.0226644491729475 0.15100000000000002 Q 6.0226644491729475 0.125 6.040164449172948 0.10749999999999993 Q 6.057664449172948 0.08999999999999997 6.0836644491729475 0.08999999999999997 M 6.621656148391698 0.75 Q 6.536656148391698 0.75 6.474156148391698 0.7145 Q 6.411656148391698 0.679 6.378156148391698 0.618 Q 6.344656148391698 0.5569999999999999 6.344656148391698 0.48 Q 6.344656148391698 0.38999999999999996 6.381156148391698 0.32649999999999996 Q 6.417656148391697 0.26299999999999996 6.476656148391697 0.22899999999999998 Q 6.5356561483916975 0.19499999999999995 6.601656148391697 0.19499999999999995 Q 6.6526561483916975 0.19499999999999995 6.698156148391697 0.21599999999999997 Q 6.743656148391698 0.237 6.778656148391698 0.27349999999999997 Q 6.813656148391697 0.31 6.834156148391697 0.358 Q 6.8546561483916975 0.40599999999999997 6.8546561483916975 0.45999999999999996 Q 6.853656148391698 0.484 6.835656148391697 0.499 Q 6.8176561483916975 0.514 6.7936561483916975 0.514 L 6.411656148391698 0.514 L 6.381656148391698 0.414 L 6.748656148391698 0.414 L 6.726656148391697 0.434 L 6.726656148391697 0.407 Q 6.724656148391698 0.378 6.706156148391697 0.355 Q 6.687656148391698 0.33199999999999996 6.660156148391698 0.3185 Q 6.632656148391698 0.305 6.601656148391697 0.305 Q 6.571656148391698 0.305 6.545656148391697 0.313 Q 6.5196561483916975 0.321 6.500656148391697 0.33999999999999997 Q 6.481656148391697 0.359 6.470656148391697 0.39099999999999996 Q 6.459656148391698 0.423 6.459656148391698 0.472 Q 6.459656148391698 0.526 6.482156148391698 0.5635 Q 6.504656148391698 0.601 6.540156148391698 0.6204999999999999 Q 6.5756561483916975 0.64 6.615656148391698 0.64 Q 6.6526561483916975 0.64 6.674656148391698 0.634 Q 6.696656148391698 0.628 6.710156148391698 0.6194999999999999 Q 6.723656148391697 0.611 6.734656148391697 0.605 Q 6.752656148391697 0.596 6.768656148391697 0.596 Q 6.790656148391697 0.596 6.805156148391697 0.611 Q 6.819656148391697 0.626 6.819656148391697 0.646 Q 6.819656148391697 0.673 6.791656148391698 0.695 Q 6.765656148391698 0.717 6.718656148391697 0.7335 Q 6.671656148391698 0.75 6.621656148391698 0.75" fill="#OB2F50" fill-rule="nonzero"></path></g><g></g><g clip-path="url(#SvgjsClipPath1009)"><g clip-path="url(#SvgjsClipPath100182541bd1-e715-488d-9a38-c0423b58ef21)"><path d=" M 2.7542282247706993 0.762985913434676 L 2.847537909428281 0.6696762287770943 L 2.940860680998157 0.7629990003469701 L 2.847550996340575 0.8563086850045519 Z" fill="#186aa5" transform="matrix(1,0,0,1,0,0)" fill-rule="nonzero"></path></g><g clip-path="url(#SvgjsClipPath100182541bd1-e715-488d-9a38-c0423b58ef21)"><path d=" M 2.8969434839941544 0.905701149395047 L 2.990258054207491 0.8123963505490336 L 3.083562853053504 0.9057109207623703 L 2.9902482828401675 0.9990157196083836 Z" fill="#186aa5" transform="matrix(1,0,0,1,0,0)" fill-rule="nonzero"></path></g><g clip-path="url(#SvgjsClipPath100182541bd1-e715-488d-9a38-c0423b58ef21)"><path d=" M 2.8951581863529166 0.6220401196718595 L 2.9884727414477243 0.5287418496182196 L 3.081790640156658 0.6220760367944667 L 2.9884760850618504 0.7153743068481065 Z" fill="#186aa5" transform="matrix(1,0,0,1,0,0)" fill-rule="nonzero"></path></g><g clip-path="url(#SvgjsClipPath100182541bd1-e715-488d-9a38-c0423b58ef21)"><path d=" M 3.0378729678870533 0.7647871728417052 L 3.131177752298232 0.6714791314222894 L 3.224485793717647 0.7647839158334676 L 3.131181009306469 0.8580919572528832 Z" fill="#186aa5" transform="matrix(1,0,0,1,0,0)" fill-rule="nonzero"></path></g><g clip-path="url(#SvgjsClipPath100182541bd1-e715-488d-9a38-c0423b58ef21)"><path d=" M 3.5367590519747463 0.28687040204202485 L 3.536000236731649 0.28763384420733606 L 2.9893617656020988 -0.259 L 2.9893617656020988 -0.25572876599469635 L 2.4427186675503347 0.2909097051348538 L 2.4419598523072374 0.2901508898917565 L 2.358703013988377 0.373412355132831 L 2.489469089600672 0.5041830576673396 L 2.57273518176396 0.42092159242626537 L 2.525980132791409 0.37416654345371414 L 2.9893617656020988 -0.08922434320140354 L 2.9893617656020988 -0.0924955772067072 L 3.452743398412789 0.37089530944841054 L 3.4059929763624517 0.4176411045765337 L 3.489254441603526 0.500911823662036 L 3.6200205172158206 0.3701411211275272 L 3.5367590519747463 0.28687040204202485 Z" fill="#0b2f50" transform="matrix(1,0,0,1,0,0)" fill-rule="nonzero"></path></g><g clip-path="url(#SvgjsClipPath100182541bd1-e715-488d-9a38-c0423b58ef21)"><path d=" M 2.4259969706689097 0.7788695487463541 L 2.98637277385185 0.22133467580281513 L 2.98637277385185 0.2180588148752975 L 3.5523749144470234 0.7788695487463541 L 3.719665914016698 0.7788695487463541 L 3.0599917331989315 0.1251733514290863 L 2.98637277385185 0.051549765159790595 L 2.98637277385185 0.05482562608730823 L 2.912749187582554 0.12844458543438997 L 2.2590576171875 0.7788695487463541 L 2.4259969706689097 0.7788695487463541 Z" fill="#186aa5" transform="matrix(1,0,0,1,0,0)" fill-rule="nonzero"></path></g></g></g><defs><clipPath id="SvgjsClipPath1009"><path d=" M 2.2590576171875 -0.259 h 1.4606082968291976 v 1.258 h -1.4606082968291976 Z"></path></clipPath><clipPath id="SvgjsClipPath100182541bd1-e715-488d-9a38-c0423b58ef21"><path d=" M 2.2590576171875 -0.259 L 3.719665914016698 -0.259 L 3.719665914016698 0.999 L 2.2590576171875 0.999 Z"></path></clipPath></defs></svg>